<svg xmlns="http://www.w3.org/2000/svg" width="16" height="16" viewBox="0 0 16 16">
    <g fill="none" fill-rule="evenodd">
        <path stroke="#00AF00" d="M7.76.504c-2.015.064-3.832.925-5.145 2.279C1.307 4.133.5 5.973.5 8c0 2.068.84 3.944 2.199 5.302 1.36 1.36 3.237 2.196 5.541 2.194 2.015-.063 3.832-.925 5.145-2.279 1.31-1.352 2.113-3.195 2.111-5.457-.064-2.026-.935-3.852-2.332-5.165C11.784 1.3 9.894.504 7.76.504z"/>
        <path fill="#4CAC24" d="M3.094 8.472c-.125-.124-.125-.33 0-.454l.46-.453c.124-.123.333-.123.459 0L6.6 10.141c.084.082.23.082.313 0l5.073-5.048c.126-.124.335-.124.46 0l.46.453c.124.124.124.33 0 .453l-5.91 5.893c-.124.144-.333.144-.458 0l-3.445-3.42z"/>
    </g>
</svg>
